<mxfile host="app.diagrams.net" modified="2024-04-20T18:29:10.183Z" agent="Mozilla/5.0 (Windows NT 10.0; Win64; x64) AppleWebKit/537.36 (KHTML, like Gecko) Chrome/123.0.0.0 Safari/537.36" etag="wJ1TGllt3m17ASxjpDOi" version="24.2.7" type="github">
  <diagram name="第 1 页" id="-6jQfvmr-_DQ8bL5m3Pi">
    <mxGraphModel dx="1750" dy="883" grid="1" gridSize="10" guides="1" tooltips="1" connect="1" arrows="1" fold="1" page="1" pageScale="1" pageWidth="827" pageHeight="1169" math="0" shadow="0">
      <root>
        <mxCell id="0" />
        <mxCell id="1" parent="0" />
        <mxCell id="CoP99q0dUA2zQu_3UIu4-1" value="" style="ellipse;html=1;shape=startState;fillColor=#000000;strokeColor=#ff0000;" vertex="1" parent="1">
          <mxGeometry x="280" y="90" width="30" height="30" as="geometry" />
        </mxCell>
        <mxCell id="CoP99q0dUA2zQu_3UIu4-2" value="" style="edgeStyle=orthogonalEdgeStyle;html=1;verticalAlign=bottom;endArrow=open;endSize=8;strokeColor=#ff0000;rounded=0;" edge="1" source="CoP99q0dUA2zQu_3UIu4-1" parent="1">
          <mxGeometry relative="1" as="geometry">
            <mxPoint x="295" y="180" as="targetPoint" />
          </mxGeometry>
        </mxCell>
        <mxCell id="CoP99q0dUA2zQu_3UIu4-7" style="edgeStyle=orthogonalEdgeStyle;rounded=0;orthogonalLoop=1;jettySize=auto;html=1;exitX=1;exitY=0.5;exitDx=0;exitDy=0;entryX=0;entryY=0.5;entryDx=0;entryDy=0;" edge="1" parent="1" source="CoP99q0dUA2zQu_3UIu4-3" target="CoP99q0dUA2zQu_3UIu4-6">
          <mxGeometry relative="1" as="geometry" />
        </mxCell>
        <mxCell id="CoP99q0dUA2zQu_3UIu4-11" style="edgeStyle=orthogonalEdgeStyle;rounded=0;orthogonalLoop=1;jettySize=auto;html=1;exitX=0.5;exitY=1;exitDx=0;exitDy=0;entryX=0.5;entryY=0;entryDx=0;entryDy=0;" edge="1" parent="1" source="CoP99q0dUA2zQu_3UIu4-3" target="CoP99q0dUA2zQu_3UIu4-9">
          <mxGeometry relative="1" as="geometry" />
        </mxCell>
        <mxCell id="CoP99q0dUA2zQu_3UIu4-3" value="待确认" style="ellipse;whiteSpace=wrap;html=1;aspect=fixed;" vertex="1" parent="1">
          <mxGeometry x="255" y="180" width="80" height="80" as="geometry" />
        </mxCell>
        <mxCell id="CoP99q0dUA2zQu_3UIu4-5" value="：0-待确认，1-已取消，2-已发货，3-已完成，5-已申请退货，6-退货中，7-退货完成,8-待发货" style="text;html=1;align=center;verticalAlign=middle;whiteSpace=wrap;rounded=0;" vertex="1" parent="1">
          <mxGeometry x="430" y="50" width="340" height="70" as="geometry" />
        </mxCell>
        <mxCell id="CoP99q0dUA2zQu_3UIu4-6" value="" style="ellipse;html=1;shape=endState;fillColor=#000000;strokeColor=#ff0000;" vertex="1" parent="1">
          <mxGeometry x="490" y="205" width="30" height="30" as="geometry" />
        </mxCell>
        <mxCell id="CoP99q0dUA2zQu_3UIu4-8" value="买家取消" style="text;html=1;align=center;verticalAlign=middle;whiteSpace=wrap;rounded=0;" vertex="1" parent="1">
          <mxGeometry x="370" y="190" width="60" height="30" as="geometry" />
        </mxCell>
        <mxCell id="CoP99q0dUA2zQu_3UIu4-13" style="edgeStyle=orthogonalEdgeStyle;rounded=0;orthogonalLoop=1;jettySize=auto;html=1;exitX=0.5;exitY=1;exitDx=0;exitDy=0;" edge="1" parent="1" source="CoP99q0dUA2zQu_3UIu4-9" target="CoP99q0dUA2zQu_3UIu4-12">
          <mxGeometry relative="1" as="geometry" />
        </mxCell>
        <mxCell id="CoP99q0dUA2zQu_3UIu4-9" value="待发货" style="ellipse;whiteSpace=wrap;html=1;aspect=fixed;" vertex="1" parent="1">
          <mxGeometry x="255" y="340" width="80" height="80" as="geometry" />
        </mxCell>
        <mxCell id="CoP99q0dUA2zQu_3UIu4-10" value="买家确认（比如支付）" style="text;html=1;align=center;verticalAlign=middle;whiteSpace=wrap;rounded=0;" vertex="1" parent="1">
          <mxGeometry x="155" y="280" width="125" height="30" as="geometry" />
        </mxCell>
        <mxCell id="CoP99q0dUA2zQu_3UIu4-17" style="edgeStyle=orthogonalEdgeStyle;rounded=0;orthogonalLoop=1;jettySize=auto;html=1;exitX=0.5;exitY=1;exitDx=0;exitDy=0;entryX=0.5;entryY=0;entryDx=0;entryDy=0;" edge="1" parent="1" source="CoP99q0dUA2zQu_3UIu4-12" target="CoP99q0dUA2zQu_3UIu4-14">
          <mxGeometry relative="1" as="geometry" />
        </mxCell>
        <mxCell id="CoP99q0dUA2zQu_3UIu4-12" value="已发货" style="ellipse;whiteSpace=wrap;html=1;aspect=fixed;" vertex="1" parent="1">
          <mxGeometry x="255" y="490" width="80" height="80" as="geometry" />
        </mxCell>
        <mxCell id="CoP99q0dUA2zQu_3UIu4-19" style="edgeStyle=orthogonalEdgeStyle;rounded=0;orthogonalLoop=1;jettySize=auto;html=1;exitX=1;exitY=0.5;exitDx=0;exitDy=0;entryX=0;entryY=0.5;entryDx=0;entryDy=0;" edge="1" parent="1" source="CoP99q0dUA2zQu_3UIu4-14" target="CoP99q0dUA2zQu_3UIu4-18">
          <mxGeometry relative="1" as="geometry" />
        </mxCell>
        <mxCell id="CoP99q0dUA2zQu_3UIu4-27" style="edgeStyle=orthogonalEdgeStyle;rounded=0;orthogonalLoop=1;jettySize=auto;html=1;exitX=0.5;exitY=1;exitDx=0;exitDy=0;entryX=0.5;entryY=0;entryDx=0;entryDy=0;" edge="1" parent="1" source="CoP99q0dUA2zQu_3UIu4-14" target="CoP99q0dUA2zQu_3UIu4-26">
          <mxGeometry relative="1" as="geometry" />
        </mxCell>
        <mxCell id="CoP99q0dUA2zQu_3UIu4-14" value="已完成" style="ellipse;whiteSpace=wrap;html=1;aspect=fixed;" vertex="1" parent="1">
          <mxGeometry x="255" y="630" width="80" height="80" as="geometry" />
        </mxCell>
        <mxCell id="CoP99q0dUA2zQu_3UIu4-15" value="卖家发货" style="text;html=1;align=center;verticalAlign=middle;whiteSpace=wrap;rounded=0;" vertex="1" parent="1">
          <mxGeometry x="155" y="440" width="60" height="30" as="geometry" />
        </mxCell>
        <mxCell id="CoP99q0dUA2zQu_3UIu4-16" value="买家确认收货" style="text;html=1;align=center;verticalAlign=middle;whiteSpace=wrap;rounded=0;" vertex="1" parent="1">
          <mxGeometry x="155" y="585" width="60" height="30" as="geometry" />
        </mxCell>
        <mxCell id="CoP99q0dUA2zQu_3UIu4-22" style="edgeStyle=orthogonalEdgeStyle;rounded=0;orthogonalLoop=1;jettySize=auto;html=1;exitX=0.5;exitY=0;exitDx=0;exitDy=0;entryX=0.5;entryY=1;entryDx=0;entryDy=0;" edge="1" parent="1" source="CoP99q0dUA2zQu_3UIu4-18" target="CoP99q0dUA2zQu_3UIu4-21">
          <mxGeometry relative="1" as="geometry" />
        </mxCell>
        <mxCell id="CoP99q0dUA2zQu_3UIu4-31" style="edgeStyle=orthogonalEdgeStyle;rounded=0;orthogonalLoop=1;jettySize=auto;html=1;exitX=0.5;exitY=1;exitDx=0;exitDy=0;entryX=0.5;entryY=0;entryDx=0;entryDy=0;" edge="1" parent="1" source="CoP99q0dUA2zQu_3UIu4-18" target="CoP99q0dUA2zQu_3UIu4-30">
          <mxGeometry relative="1" as="geometry" />
        </mxCell>
        <mxCell id="CoP99q0dUA2zQu_3UIu4-18" value="已经申请退货" style="ellipse;whiteSpace=wrap;html=1;aspect=fixed;" vertex="1" parent="1">
          <mxGeometry x="465" y="630" width="80" height="80" as="geometry" />
        </mxCell>
        <mxCell id="CoP99q0dUA2zQu_3UIu4-20" value="买家申请退货" style="text;html=1;align=center;verticalAlign=middle;whiteSpace=wrap;rounded=0;" vertex="1" parent="1">
          <mxGeometry x="360" y="640" width="80" height="30" as="geometry" />
        </mxCell>
        <mxCell id="CoP99q0dUA2zQu_3UIu4-25" style="edgeStyle=orthogonalEdgeStyle;rounded=0;orthogonalLoop=1;jettySize=auto;html=1;exitX=0.5;exitY=0;exitDx=0;exitDy=0;entryX=0.5;entryY=1;entryDx=0;entryDy=0;" edge="1" parent="1" source="CoP99q0dUA2zQu_3UIu4-21" target="CoP99q0dUA2zQu_3UIu4-24">
          <mxGeometry relative="1" as="geometry" />
        </mxCell>
        <mxCell id="CoP99q0dUA2zQu_3UIu4-21" value="退货中" style="ellipse;whiteSpace=wrap;html=1;aspect=fixed;" vertex="1" parent="1">
          <mxGeometry x="465" y="470" width="80" height="80" as="geometry" />
        </mxCell>
        <mxCell id="CoP99q0dUA2zQu_3UIu4-23" value="卖家同意退货" style="text;html=1;align=center;verticalAlign=middle;whiteSpace=wrap;rounded=0;" vertex="1" parent="1">
          <mxGeometry x="520" y="585" width="90" height="20" as="geometry" />
        </mxCell>
        <mxCell id="CoP99q0dUA2zQu_3UIu4-29" style="edgeStyle=orthogonalEdgeStyle;rounded=0;orthogonalLoop=1;jettySize=auto;html=1;exitX=1;exitY=0.5;exitDx=0;exitDy=0;entryX=0;entryY=0.5;entryDx=0;entryDy=0;" edge="1" parent="1" source="CoP99q0dUA2zQu_3UIu4-24" target="CoP99q0dUA2zQu_3UIu4-28">
          <mxGeometry relative="1" as="geometry" />
        </mxCell>
        <mxCell id="CoP99q0dUA2zQu_3UIu4-24" value="退货完成" style="ellipse;whiteSpace=wrap;html=1;aspect=fixed;" vertex="1" parent="1">
          <mxGeometry x="465" y="330" width="80" height="80" as="geometry" />
        </mxCell>
        <mxCell id="CoP99q0dUA2zQu_3UIu4-26" value="" style="ellipse;html=1;shape=endState;fillColor=#000000;strokeColor=#ff0000;" vertex="1" parent="1">
          <mxGeometry x="280" y="780" width="30" height="30" as="geometry" />
        </mxCell>
        <mxCell id="CoP99q0dUA2zQu_3UIu4-28" value="" style="ellipse;html=1;shape=endState;fillColor=#000000;strokeColor=#ff0000;" vertex="1" parent="1">
          <mxGeometry x="630" y="355" width="30" height="30" as="geometry" />
        </mxCell>
        <mxCell id="CoP99q0dUA2zQu_3UIu4-35" style="edgeStyle=orthogonalEdgeStyle;rounded=0;orthogonalLoop=1;jettySize=auto;html=1;exitX=1;exitY=0.5;exitDx=0;exitDy=0;entryX=0.5;entryY=1;entryDx=0;entryDy=0;" edge="1" parent="1" source="CoP99q0dUA2zQu_3UIu4-30" target="CoP99q0dUA2zQu_3UIu4-34">
          <mxGeometry relative="1" as="geometry" />
        </mxCell>
        <mxCell id="CoP99q0dUA2zQu_3UIu4-48" style="edgeStyle=orthogonalEdgeStyle;rounded=0;orthogonalLoop=1;jettySize=auto;html=1;exitX=0;exitY=0.5;exitDx=0;exitDy=0;entryX=0.5;entryY=0;entryDx=0;entryDy=0;" edge="1" parent="1" source="CoP99q0dUA2zQu_3UIu4-30" target="CoP99q0dUA2zQu_3UIu4-47">
          <mxGeometry relative="1" as="geometry" />
        </mxCell>
        <mxCell id="CoP99q0dUA2zQu_3UIu4-30" value="退货拒绝" style="ellipse;whiteSpace=wrap;html=1;aspect=fixed;fillColor=#ffe6cc;strokeColor=#d79b00;" vertex="1" parent="1">
          <mxGeometry x="465" y="780" width="80" height="80" as="geometry" />
        </mxCell>
        <mxCell id="CoP99q0dUA2zQu_3UIu4-33" value="买家拒绝同意退货" style="text;html=1;align=center;verticalAlign=middle;whiteSpace=wrap;rounded=0;" vertex="1" parent="1">
          <mxGeometry x="420" y="730" width="60" height="30" as="geometry" />
        </mxCell>
        <mxCell id="CoP99q0dUA2zQu_3UIu4-39" style="edgeStyle=orthogonalEdgeStyle;rounded=0;orthogonalLoop=1;jettySize=auto;html=1;exitX=1;exitY=0.5;exitDx=0;exitDy=0;entryX=0.5;entryY=1;entryDx=0;entryDy=0;" edge="1" parent="1" source="CoP99q0dUA2zQu_3UIu4-34" target="CoP99q0dUA2zQu_3UIu4-30">
          <mxGeometry relative="1" as="geometry">
            <mxPoint x="820" y="749.9999999999998" as="targetPoint" />
            <Array as="points">
              <mxPoint x="750" y="750" />
              <mxPoint x="750" y="1000" />
              <mxPoint x="510" y="1000" />
              <mxPoint x="510" y="860" />
            </Array>
          </mxGeometry>
        </mxCell>
        <mxCell id="CoP99q0dUA2zQu_3UIu4-43" style="edgeStyle=orthogonalEdgeStyle;rounded=0;orthogonalLoop=1;jettySize=auto;html=1;exitX=0.5;exitY=0;exitDx=0;exitDy=0;" edge="1" parent="1" source="CoP99q0dUA2zQu_3UIu4-34" target="CoP99q0dUA2zQu_3UIu4-41">
          <mxGeometry relative="1" as="geometry" />
        </mxCell>
        <mxCell id="CoP99q0dUA2zQu_3UIu4-34" value="平台介入" style="ellipse;whiteSpace=wrap;html=1;aspect=fixed;fillColor=#ffe6cc;strokeColor=#d79b00;" vertex="1" parent="1">
          <mxGeometry x="650" y="710" width="80" height="80" as="geometry" />
        </mxCell>
        <mxCell id="CoP99q0dUA2zQu_3UIu4-36" value="买家申请平台介入" style="text;html=1;align=center;verticalAlign=middle;whiteSpace=wrap;rounded=0;" vertex="1" parent="1">
          <mxGeometry x="550" y="790" width="110" height="30" as="geometry" />
        </mxCell>
        <mxCell id="CoP99q0dUA2zQu_3UIu4-45" style="edgeStyle=orthogonalEdgeStyle;rounded=0;orthogonalLoop=1;jettySize=auto;html=1;exitX=0.5;exitY=0;exitDx=0;exitDy=0;entryX=1;entryY=0.5;entryDx=0;entryDy=0;" edge="1" parent="1" source="CoP99q0dUA2zQu_3UIu4-41" target="CoP99q0dUA2zQu_3UIu4-21">
          <mxGeometry relative="1" as="geometry" />
        </mxCell>
        <mxCell id="CoP99q0dUA2zQu_3UIu4-41" value="强制退货" style="ellipse;whiteSpace=wrap;html=1;aspect=fixed;fillColor=#ffe6cc;strokeColor=#d79b00;" vertex="1" parent="1">
          <mxGeometry x="650" y="555" width="80" height="80" as="geometry" />
        </mxCell>
        <mxCell id="CoP99q0dUA2zQu_3UIu4-42" value="平台审核失败" style="text;html=1;align=center;verticalAlign=middle;whiteSpace=wrap;rounded=0;" vertex="1" parent="1">
          <mxGeometry x="630" y="960" width="60" height="30" as="geometry" />
        </mxCell>
        <mxCell id="CoP99q0dUA2zQu_3UIu4-44" value="平台审核通过" style="text;html=1;align=center;verticalAlign=middle;whiteSpace=wrap;rounded=0;" vertex="1" parent="1">
          <mxGeometry x="700" y="660" width="90" height="30" as="geometry" />
        </mxCell>
        <mxCell id="CoP99q0dUA2zQu_3UIu4-46" value="卖家收货" style="text;html=1;align=center;verticalAlign=middle;whiteSpace=wrap;rounded=0;" vertex="1" parent="1">
          <mxGeometry x="520" y="430" width="60" height="30" as="geometry" />
        </mxCell>
        <mxCell id="CoP99q0dUA2zQu_3UIu4-47" value="" style="ellipse;html=1;shape=endState;fillColor=#000000;strokeColor=#ff0000;" vertex="1" parent="1">
          <mxGeometry x="370" y="900" width="30" height="30" as="geometry" />
        </mxCell>
      </root>
    </mxGraphModel>
  </diagram>
</mxfile>
